# xmcd CD database file
#
# Track frame offsets:
#	150
#	10588
#	21247
#	31446
#	42667
#	54491
#	66980
#	78668
#	89707
#	100030
#	111077
#	121921
#
# Disc length: 1778 seconds
#
# Revision: 1
# Processed by: cddbd v1.5.1PL2 Copyright (c) Steve Scherf et al.
# Submitted via: CDex 1.51
#
DISCID=9d06f00c
DTITLE=Patsy Cline - True Love - A Standards Collection
DYEAR=2000
DGENRE=Country
TTITLE0=True Love
TTITLE1=You Belong To Me
TTITLE2=You Were Only Fooling
TTITLE3=Thats My Desire
TTITLE4=Heartaches
TTITLE5=Love Letters In The Sand
TTITLE6=Someday You'll Want Me To Want You
TTITLE7=Have You Ever Been Lonely?
TTITLE8=I Love You So Much It Hurts
TTITLE9=You Made Me Love You
TTITLE10=Does Your Heart Beat For Me?
TTITLE11=Bill Bailey
EXTD=YEAR: 2000
EXTT0=
EXTT1=
EXTT2=
EXTT3=
EXTT4=
EXTT5=
EXTT6=
EXTT7=
EXTT8=
EXTT9=
EXTT10=
EXTT11=
PLAYORDER=
